<?xml version="1.0" encoding="utf-8"?>
<?xml-stylesheet type="text/css" href="../css/Map.css"?>

<!-- Generator: Adobe Illustrator 22.0.1, SVG Export Plug-In . SVG Version: 6.00 Build 0)  -->
<svg version="1.1" id="Слой_1" xmlns="http://www.w3.org/2000/svg" xmlns:xlink="http://www.w3.org/1999/xlink" x="0px" y="0px"
	 viewBox="0 0 1102 852" style="enable-background:new 0 0 1102 852;" xml:space="preserve">

<g id="Floor_1">
	<g id="Гостинная">
		<path pointer-events="none" class="st0" d="M0.5,180.5h470v150h-10v-140H0.5V180.5z"/>
		<path pointer-events="none" class="st0" d="M100.5,590.5H0.5v-400h10v390h90V590.5z"/>
		<path pointer-events="none" class="st0" d="M470.5,450.5v140h-370v-10h360v-130H470.5z"/>
	</g>
	<g id="Гардероб">
		<path pointer-events="none" class="st0" d="M700.5,170.5V0.5h400v170h-10v-160h-380v160H700.5z"/>
		<rect x="700.5" y="170.5" pointer-events="none" class="st1" width="250" height="10"/>
		<rect x="1040.5" y="170.5" pointer-events="none" class="st1" width="60" height="10"/>
	</g>
	<g id="Детская">
		<path pointer-events="none" class="st0" d="M920.5,590.5h-220v-180h10v170h210V590.5z"/>
		<rect x="700.5" y="180.5" pointer-events="none" class="st1" width="10" height="150"/>
		<path pointer-events="none" class="st0" d="M1100.5,180.5v410h-180v-10h170v-400H1100.5z"/>
		<rect x="700.5" y="170.5" pointer-events="none" class="st1" width="250" height="10"/>
		<rect x="1030.5" y="170.5" pointer-events="none" class="st1" width="70" height="10"/>
	</g>
	<g id="Кухня">
		<path pointer-events="none" class="st0" d="M290.5,850.5H0.5v-260h290v10h-280v240h280V850.5z"/>
		<rect x="289.5" y="590.5" pointer-events="none" class="st1" width="10" height="50"/>
		<rect x="289.5" y="710.5" pointer-events="none" class="st1" width="10" height="140"/>
	</g>
	<g id="Балкон">
		<path pointer-events="none" class="st0" d="M960.5,660.5v-70h100v10h-90v60H960.5z"/>
		<path pointer-events="none" class="st0" d="M1060.5,590.5h40v150h-10v-140h-30V590.5z"/>
		<path pointer-events="none" class="st0" d="M1100.5,740.5v110h-60v-10h50v-100H1100.5z"/>
		<path pointer-events="none" class="st0" d="M1040.5,850.5h-80v-120h10v110h70V850.5z"/>
	</g>
	<g id="Спальня">
		<path pointer-events="none" class="st0" d="M710.5,590.5h250v70h-10v-60h-240V590.5z"/>
		<path pointer-events="none" class="st0" d="M960.5,730.5v120h-270v-10h260v-110H960.5z"/>
		<path pointer-events="none" class="st0" d="M690.5,850.5h-100v-140h10v130h90V850.5z"/>
		<path pointer-events="none" class="st0" d="M590.5,630.5v-40h120v10h-110v30H590.5z"/>
	</g>
	<g id="Ванная">
		<path pointer-events="none" class="st0" d="M590.5,740.5v110h-180v-110h10v100h160v-100H590.5z"/>
		<rect x="540.5" y="730.5" pointer-events="none" class="st1" width="50" height="10"/>
		<rect x="410.5" y="730.5" pointer-events="none" class="st1" width="50" height="10"/>
	</g>
	<g id="Туалет">
		<path pointer-events="none" class="st0" d="M410.5,740.5v110h-110v-110h10v100h90v-100H410.5z"/>
		<rect x="300.5" y="730.5" pointer-events="none" class="st1" width="20" height="10"/>
		<rect x="390.5" y="730.5" pointer-events="none" class="st1" width="20" height="10"/>
	</g>
	<g id="Вход">
		<rect x="460.5" y="170.5" pointer-events="none" class="st1" width="50" height="10"/>
		<rect x="650.5" y="170.5" pointer-events="none" class="st1" width="50" height="10"/>
		<path pointer-events="none" class="st0" d="M460.5,170.5V0.5h90v10h-80v160H460.5z"/>
		<path pointer-events="none" class="st0" d="M630.5,0.5h69v170h-10v-160h-59V0.5z"/>
	</g>
	<g id="Furniture">
	<rect x="315.5" y="730.5" pointer-events="none" class="st2" width="80" height="5"/>
	<path pointer-events="none" class="st3" d="M395.5,730.5c0-44.2-35.8-80-80-80v80"/>
	<rect x="461" y="730.5" pointer-events="none" class="st2" width="80" height="5"/>
	<path pointer-events="none" class="st3" d="M461,730.5c0-44.2,35.8-80,80-80v80"/>
	<rect x="593.5" y="630" pointer-events="none" class="st2" width="5" height="80"/>
	<path pointer-events="none" class="st3" d="M598.5,710c44.2,0,80-35.8,80-80h-80"/>
	<rect x="958.5" y="653" pointer-events="none" class="st2" width="5" height="80"/>
	<path pointer-events="none" class="st3" d="M958.5,733c-44.2,0-80-35.8-80-80h80"/>
	<rect x="292.5" y="638" pointer-events="none" class="st2" width="5" height="80"/>
	<path pointer-events="none" class="st3" d="M292.5,718c-44.2,0-80-35.8-80-80h80"/>
	<rect x="703.5" y="331" pointer-events="none" class="st2" width="5" height="80"/>
	<path pointer-events="none" class="st3" d="M708.5,331c44.2,0,80,35.8,80,80h-80"/>
	<rect x="951" y="175.5" pointer-events="none" class="st2" width="80" height="5"/>
	<path pointer-events="none" class="st3" d="M951,175.5c0-44.2,35.8-80,80-80v80"/>
	<path pointer-events="none" class="st4" d="M392.6,241.4l12.6-16.7c1.8-2.5,4.9-3.8,7.9-3.2c7.4,5.2,13.9,11.5,19.3,18.7
		c0.7,3-0.5,6.2-3,8l-16.4,13.1c-2,1.3-5,0.8-7.4-1.1l-11.8-11.5C391.9,246.4,391.4,243.4,392.6,241.4z"/>
	<path pointer-events="none" class="st4" d="M389.8,245.3c-0.3-0.7,0-1.6,0.7-2c0.7-0.4,1.6-0.2,1.9,0.5c4.7,7.5,11,13.7,18.6,18.1
		c0.3,0.5,0.3,1.1,0,1.6c-0.3,0.5-0.8,0.9-1.4,1C401.4,260,394.6,253.3,389.8,245.3"/>
	<path pointer-events="none" class="st4" d="M461,190.5v130h-34.7v-52L383,225.2h-52v-34.7H461z"/>
	<path pointer-events="none" class="st4" d="M395.6,213.4l42.4,42.4l3.5-3.5l14.6-27.9c1.1-2.4,1-5.2-0.4-7.5l-21.2-21.2
		c-2.3-1.7-5.3-2-7.9-0.8l-27.4,15L395.6,213.4z"/>
	<path pointer-events="none" class="st4" d="M436.9,206.1l-12.3,12.3 M439.1,208.2l-12.3,12.3 M441.2,210.3l-12.3,12.3 M445.4,214.6
		l-12.3,12.3 M443.3,212.4L431,224.7 M441.6,252.3c3.9-3.9,3.9-10.2,0-14.1l-28.3-28.3c-3.9-3.9-10.2-3.9-14.1,0L441.6,252.3z"/>
	<rect x="81" y="540.5" pointer-events="none" class="st2" width="130" height="10"/>
	<path pointer-events="none" class="st2" d="M218,560.5h-9c-1.7,0-3-1.3-3-3v-74c0-1.7,1.3-3,3-3h9c1.7,0,3,1.3,3,3v74
		C221,559.2,219.7,560.5,218,560.5z"/>
	<path pointer-events="none" class="st2" d="M203,560.5H89c-1.7,0-3-1.3-3-3v-9c0-1.7,1.3-3,3-3h114c1.7,0,3,1.3,3,3v9
		C206,559.2,204.7,560.5,203,560.5z"/>
	<path pointer-events="none" class="st2" d="M203,545.5h-54c-1.7,0-3-1.3-3-3v-59c0-1.7,1.3-3,3-3h54c1.7,0,3,1.3,3,3v59
		C206,544.2,204.7,545.5,203,545.5z"/>
	<path pointer-events="none" class="st2" d="M143,545.5H89c-1.7,0-3-1.3-3-3v-59c0-1.7,1.3-3,3-3h54c1.7,0,3,1.3,3,3v59
		C146,544.2,144.7,545.5,143,545.5z"/>
	<path pointer-events="none" class="st2" d="M83,560.5h-9c-1.7,0-3-1.3-3-3v-74c0-1.7,1.3-3,3-3h9c1.7,0,3,1.3,3,3v74
		C86,559.2,84.7,560.5,83,560.5z"/>
	<rect x="71" y="205.5" pointer-events="none" class="st2" width="150" height="5"/>
	<path pointer-events="none" class="st4" d="M92.4,205.5l15-4c1.9-0.6,4.2-0.9,6.4-1h64.3c2.3,0.1,4.5,0.4,6.4,1l15,4H92.4z"/>
	<path pointer-events="none" class="st3" d="M133.1,201.5v4 M139.6,201.5v4 M146,201.5v4 M158.9,201.5v4 M152.4,201.5v4"/>
	<path pointer-events="none" class="st4" d="M284,440.5h119.8c13.6,3.6,23.2,15.9,23.2,30s-9.5,26.4-23.2,30
		c-28,9.3-49.6,31.7-57.9,60c-2.5,7.4-11,13.2-22,15h-40V440.5z"/>
	<rect x="284" y="440.5" pointer-events="none" class="st5" width="12" height="135"/>
	<polygon pointer-events="none" class="st5" points="427,440.5 427,440.5 427,440.5 	"/>
	<path pointer-events="none" class="st3" d="M296,443.5h-12 M296,449.5h-12 M296,455.5h-12 M296,461.5h-12 M296,467.5h-12
		 M296,473.5h-12 M296,479.5h-12 M296,485.5h-12 M296,491.5h-12 M296,446.5h-12 M296,452.5h-12 M296,458.5h-12 M296,464.5h-12
		 M296,470.5h-12 M296,476.5h-12 M296,482.5h-12 M296,488.5h-12 M296,494.5h-12 M296,497.5h-12 M296,503.5h-12 M296,509.5h-12
		 M296,515.5h-12 M296,521.5h-12 M296,527.5h-12 M296,533.5h-12 M296,539.5h-12 M296,545.5h-12 M296,500.5h-12 M296,506.5h-12
		 M296,512.5h-12 M296,518.5h-12 M296,524.5h-12 M296,530.5h-12 M296,536.5h-12 M296,542.5h-12 M296,548.5h-12 M296,551.5h-12
		 M296,557.5h-12 M296,563.5h-12 M296,569.5h-12 M296,554.5h-12 M296,560.5h-12 M296,566.5h-12 M296,572.5h-12"/>
	<rect x="716" y="15.5" pointer-events="none" class="st2" width="205" height="73.8"/>
	<path pointer-events="none" class="st3" d="M716,83.2h205 M818.5,83.2v6.2"/>
	<rect x="757" y="89.3" pointer-events="none" class="st2" width="20.5" height="6.2"/>
	<rect x="859.5" y="89.3" pointer-events="none" class="st2" width="20.5" height="6.2"/>
	<rect x="931" y="15.5" pointer-events="none" class="st2" width="150" height="45"/>
	<path pointer-events="none" class="st3" d="M931,53c0,2.1,2,3.8,4.4,3.8c2.4,0,4.4-1.7,4.4-3.8V27.5c-2.6,2.3-6.1,2.3-8.8,0V53z
		 M941,53c0,2.1,2,3.8,4.4,3.8c2.4,0,4.4-1.7,4.4-3.8V27.5c-2.6,2.3-6.1,2.3-8.8,0V53z M951,53c0,2.1,2,3.8,4.4,3.8
		c2.4,0,4.4-1.7,4.4-3.8V27.5c-2.6,2.3-6.1,2.3-8.8,0V53z M961,53c0,2.1,2,3.8,4.4,3.8c2.4,0,4.4-1.7,4.4-3.8V27.5
		c-2.6,2.3-6.1,2.3-8.8,0V53z M971,53c0,2.1,2,3.8,4.4,3.8c2.4,0,4.4-1.7,4.4-3.8V27.5c-2.6,2.3-6.1,2.3-8.8,0V53z M981,53
		c0,2.1,2,3.8,4.4,3.8c2.4,0,4.4-1.7,4.4-3.8V27.5c-2.6,2.3-6.1,2.3-8.8,0V53z M991,53c0,2.1,2,3.8,4.4,3.8c2.4,0,4.4-1.7,4.4-3.8
		V27.5c-2.6,2.3-6.1,2.3-8.8,0V53z M1001,53c0,2.1,2,3.8,4.4,3.8c2.4,0,4.4-1.7,4.4-3.8V27.5c-2.6,2.3-6.1,2.3-8.8,0V53z M1011,53
		c0,2.1,2,3.8,4.4,3.8c2.4,0,4.4-1.7,4.4-3.8V27.5c-2.6,2.3-6.1,2.3-8.8,0V53z M1021,53c0,2.1,2,3.8,4.4,3.8c2.4,0,4.4-1.7,4.4-3.8
		V27.5c-2.6,2.3-6.1,2.3-8.8,0V53z M1031,53c0,2.1,2,3.8,4.4,3.8c2.4,0,4.4-1.7,4.4-3.8V27.5c-2.6,2.3-6.1,2.3-8.8,0V53z M1041,53
		c0,2.1,2,3.8,4.4,3.8c2.4,0,4.4-1.7,4.4-3.8V27.5c-2.6,2.3-6.1,2.3-8.8,0V53z M1062,22.5l-7.4,30.2l16.8,5.9l7.4-30.2L1062,22.5z"
		/>
	<rect x="728.5" y="203" pointer-events="none" class="st2" width="180" height="100"/>
	<path pointer-events="none" class="st5" d="M733.5,288v-70c0-2.8,2.2-5,5-5h30c2.8,0,5,2.2,5,5v70c0,2.8-2.2,5-5,5h-30
		C735.7,293,733.5,290.8,733.5,288z"/>
	<rect x="758.5" y="203" pointer-events="none" class="st2" width="25" height="100"/>
	<rect x="726" y="458" pointer-events="none" class="st2" width="180" height="100"/>
	<path pointer-events="none" class="st5" d="M731,543v-70c0-2.8,2.2-5,5-5h30c2.8,0,5,2.2,5,5v70c0,2.8-2.2,5-5,5h-30
		C733.2,548,731,545.8,731,543z"/>
	<rect x="756" y="458" pointer-events="none" class="st2" width="25" height="100"/>
	<path pointer-events="none" class="st4" d="M1037.4,508.8l3,24.1c0.6,3.5-1,7.1-4,9c-10.2,1.6-20.7,1.6-30.9,0c-3-1.9-4.5-5.5-4-9
		l3-24.1c0.6-2.7,3.4-4.7,7-5h18.9C1034,504.1,1036.9,506.1,1037.4,508.8z"/>
	<path pointer-events="none" class="st4" d="M1036.7,503.3c0.8,0.3,1.3,1.3,1,2.2c-0.3,0.9-1.2,1.4-2,1.1c-9.9-2.4-20.1-2.4-29.9,0
		c-0.6-0.2-1.1-0.7-1.3-1.4c-0.2-0.7-0.1-1.4,0.3-2C1015.3,500.5,1026.2,500.5,1036.7,503.3"/>
	<rect x="981" y="520.5" pointer-events="none" class="st2" width="80" height="50"/>
	<rect x="1001" y="530.5" pointer-events="none" class="st2" width="40" height="18"/>
	<rect x="1006" y="550.5" pointer-events="none" class="st2" width="28" height="20"/>
	<rect x="996" y="553.5" pointer-events="none" class="st2" width="50" height="15"/>
	<rect x="1003" y="533.5" pointer-events="none" class="st5" width="20" height="10"/>
	<rect x="1031" y="533.5" pointer-events="none" class="st5" width="8" height="10"/>
	<rect x="1025" y="533.5" pointer-events="none" class="st5" width="4" height="3"/>
	<rect x="1025" y="540.5" pointer-events="none" class="st5" width="4" height="3"/>
	<path pointer-events="none" class="st3" d="M996,565.5h50"/>
	<rect x="999" y="555.5" pointer-events="none" class="st5" width="44" height="8"/>
	<rect x="700" y="670" pointer-events="none" class="st2" width="172" height="170"/>
	<path pointer-events="none" class="st5" d="M858.7,835.3h-59.4c-2.6,0-4.7-2.1-4.7-4.7v-28.3c0-2.6,2.1-4.7,4.7-4.7h59.4
		c2.6,0,4.7,2.1,4.7,4.7v28.3C863.4,833.2,861.3,835.3,858.7,835.3z"/>
	<path pointer-events="none" class="st5" d="M772.7,835.3h-59.4c-2.6,0-4.7-2.1-4.7-4.7v-28.3c0-2.6,2.1-4.7,4.7-4.7h59.4
		c2.6,0,4.7,2.1,4.7,4.7v28.3C777.4,833.2,775.3,835.3,772.7,835.3z"/>
	<rect x="700" y="788.1" pointer-events="none" class="st2" width="172" height="23.6"/>
	<rect x="605.5" y="737.5" pointer-events="none" class="st2" width="60" height="100"/>
	<path pointer-events="none" class="st3" d="M660.5,837.5v-100 M660.5,787.5h5"/>
	<rect x="665.5" y="807.5" pointer-events="none" class="st2" width="5" height="10"/>
	<rect x="665.5" y="757.5" pointer-events="none" class="st2" width="5" height="10"/>
	<rect x="108.5" y="777" pointer-events="none" class="st2" width="75" height="60"/>
	<ellipse pointer-events="none" class="st5" cx="171" cy="791.5" rx="3" ry="3"/>
	<ellipse pointer-events="none" class="st5" cx="171" cy="821.5" rx="4" ry="4"/>
	<ellipse pointer-events="none" class="st5" cx="121" cy="821.5" rx="5" ry="5"/>
	<ellipse pointer-events="none" class="st5" cx="121" cy="791.5" rx="6" ry="6"/>
	<path pointer-events="none" class="st3" d="M167.5,788.5l7,7 M174.5,788.5l-7,7 M166.5,817.5l9,9 M175.5,817.5l-9,9 M114.5,785.5
		l13,13 M127.5,785.5l-13,13 M115.5,816.5l11,11 M126.5,816.5l-11,11"/>
	<path pointer-events="none" class="st5" d="M139,782h14c1.7,0,3,1.3,3,3v44c0,1.7-1.3,3-3,3h-14c-1.7,0-3-1.3-3-3v-44
		C136,783.3,137.3,782,139,782z"/>
	<rect x="113.5" y="837" pointer-events="none" class="st2" width="5" height="2"/>
	<rect x="122.5" y="837" pointer-events="none" class="st2" width="5" height="2"/>
	<rect x="131.5" y="837" pointer-events="none" class="st2" width="5" height="2"/>
	<rect x="140.5" y="837" pointer-events="none" class="st2" width="5" height="2"/>
	<rect x="149.5" y="837" pointer-events="none" class="st2" width="5" height="2"/>
	<rect x="158.5" y="837" pointer-events="none" class="st2" width="5" height="2"/>
	<rect x="167.5" y="837" pointer-events="none" class="st2" width="5" height="2"/>
	<rect x="176.5" y="837" pointer-events="none" class="st2" width="5" height="2"/>
	<path pointer-events="none" class="st2" d="M231.9,802.8l26.2-18.4c1.8-1.3,4.3-0.8,5.6,1l15.5,22.1c1.3,1.8,0.8,4.3-1,5.6
		l-26.2,18.4c-1.8,1.3-4.3,0.8-5.6-1l-15.5-22.1C229.6,806.6,230,804.1,231.9,802.8z"/>
	<path pointer-events="none" class="st5" d="M240,809.3l21.3-14.9c1.4-1,3.2-0.6,4.2,0.7l8.6,12.3c1,1.4,0.6,3.2-0.7,4.2l-21.3,14.9
		c-1.4,1-3.2,0.6-4.2-0.7l-8.6-12.3C238.4,812.1,238.7,810.3,240,809.3z"/>
	<ellipse pointer-events="none" cx="255.9" cy="809.2" rx="2.5" ry="2.5"/>
	<polygon pointer-events="none" class="st5" points="228.6,805.1 228.6,805.1 228.6,805.1 	"/>
	<path pointer-events="none" class="st2" d="M246.7,796.1L246.7,796.1c0.9-0.6,2.2-0.4,2.8,0.5l6.9,9.8c0.6,0.9,0.4,2.2-0.5,2.8l0,0
		c-0.9,0.6-2.2,0.4-2.8-0.5l-6.9-9.8C245.6,798,245.8,796.8,246.7,796.1z"/>
	<path pointer-events="none" class="st5" d="M246.7,796.1L246.7,796.1c0.9-0.6,2.2-0.4,2.8,0.5l4,5.7c0.6,0.9,0.4,2.2-0.5,2.8l0,0
		c-0.9,0.6-2.2,0.4-2.8-0.5l-4-5.7C245.6,798,245.8,796.8,246.7,796.1z"/>
	<path pointer-events="none" class="st4" d="M117.4,618.8l3,24.1c0.6,3.5-1,7.1-4,9c-10.2,1.6-20.7,1.6-30.9,0c-3-1.9-4.6-5.5-4-9
		l3-24.1c0.6-2.7,3.4-4.7,7-5h18.9C114,614.1,116.9,616.1,117.4,618.8z"/>
	<path pointer-events="none" class="st4" d="M116.7,613.3c0.8,0.3,1.3,1.3,1,2.2c-0.3,0.9-1.2,1.4-2,1.1c-9.8-2.4-20-2.4-29.9,0
		c-0.6-0.2-1.1-0.7-1.3-1.4c-0.2-0.7-0.1-1.4,0.3-2C95.3,610.5,106.2,610.5,116.7,613.3"/>
	<path pointer-events="none" class="st4" d="M84.6,742.2l-3-24.1c-0.6-3.5,1-7.1,4-9c10.2-1.6,20.7-1.6,30.9,0c3,1.9,4.6,5.5,4,9
		l-3,24.1c-0.6,2.7-3.4,4.7-7,5H91.5C88,746.9,85.1,744.9,84.6,742.2z"/>
	<path pointer-events="none" class="st4" d="M85.3,747.7c-0.8-0.3-1.3-1.3-1-2.2c0.3-0.9,1.2-1.4,2-1.1c9.8,2.4,20,2.4,29.9,0
		c0.6,0.2,1.1,0.7,1.3,1.4c0.2,0.7,0.1,1.4-0.3,2C106.7,750.5,95.8,750.5,85.3,747.7"/>
	<path pointer-events="none" class="st4" d="M39.3,664.1l24.1-3c3.5-0.6,7.1,1,9,4c1.6,10.2,1.6,20.7,0,30.9c-1.9,3-5.5,4.5-9,4
		l-24.1-3c-2.7-0.6-4.7-3.4-5-7V671C34.6,667.5,36.6,664.6,39.3,664.1z"/>
	<path pointer-events="none" class="st4" d="M33.8,664.8c0.3-0.8,1.3-1.3,2.2-1c0.9,0.3,1.4,1.2,1.1,2c-2.4,9.8-2.4,20,0,29.9
		c-0.2,0.6-0.7,1.1-1.4,1.3c-0.7,0.2-1.4,0.1-2-0.3C31,686.2,31,675.3,33.8,664.8"/>
	<path pointer-events="none" class="st4" d="M162.7,696.9l-24.1,3c-3.5,0.6-7.1-1-9-4c-1.6-10.2-1.6-20.7,0-30.9c1.9-3,5.5-4.5,9-4
		l24.1,3c2.7,0.6,4.7,3.4,5,7V690C167.4,693.5,165.4,696.4,162.7,696.9z"/>
	<path pointer-events="none" class="st4" d="M168.2,696.2c-0.3,0.8-1.3,1.3-2.2,1c-0.9-0.3-1.4-1.2-1.1-2c2.4-9.8,2.4-20,0-29.9
		c0.2-0.6,0.7-1.1,1.4-1.3c0.7-0.2,1.4-0.1,2,0.3C171,674.8,171,685.7,168.2,696.2"/>
	<rect x="51" y="630.5" pointer-events="none" class="st2" width="100" height="100"/>
	<path pointer-events="none" class="st4" d="M21,772.5v-2c0-1.1,0.4-2.1,1.2-2.8s1.8-1.2,2.8-1.2h52c1.1,0,2.1,0.4,2.8,1.2
		s1.2,1.8,1.2,2.8v2H21z"/>
	<rect x="21" y="774.5" pointer-events="none" class="st2" width="60" height="47"/>
	<path pointer-events="none" class="st3" d="M75,821.5c0.3,1.2,0,2.5-0.8,3.5c-0.8,1-2,1.5-3.3,1.5H31c-1.3,0-2.5-0.5-3.3-1.5
		c-0.8-1-1.1-2.3-0.8-3.5"/>
	<rect x="30" y="764.5" pointer-events="none" class="st2" width="6" height="2"/>
	<rect x="431" y="790.5" pointer-events="none" class="st2" width="130" height="47"/>
	<path pointer-events="none" class="st3" d="M438.2,802.3c0-4.3,3.2-7.8,7.2-7.8h75.8c12,0,21.7,7,21.7,15.7v7.8
		c0,8.7-9.7,15.7-21.7,15.7h-75.8c-4,0-7.2-3.5-7.2-7.8V802.3z"/>
	<path pointer-events="none" class="st3" d="M431,803h1.4c1.1,0,2.1,4.8,2.2,11c-0.1,6.2-1,11-2.2,11H431"/>
	<path pointer-events="none" class="st2" d="M433.6,812.4h9.9c0.9,0,1.6,0.7,1.6,1.6l0,0c0,0.9-0.7,1.6-1.6,1.6h-9.9
		c-0.9,0-1.6-0.7-1.6-1.6l0,0C432.1,813.1,432.8,812.4,433.6,812.4z"/>
	<ellipse pointer-events="none" cx="449" cy="814.5" rx="2.9" ry="3.1"/>
	<path pointer-events="none" class="st2" d="M378,828.5h-46c-1.1,0-2-0.9-2-2v-11c0-1.1,0.9-2,2-2h46c1.1,0,2,0.9,2,2v11
		C380,827.6,379.1,828.5,378,828.5z"/>
	<rect x="339" y="796.5" pointer-events="none" class="st2" width="32" height="17"/>
	<ellipse pointer-events="none" class="st2" cx="355" cy="786.5" rx="20" ry="25"/>
	<ellipse pointer-events="none" class="st5" cx="355" cy="784.5" rx="12" ry="15"/>
	<ellipse pointer-events="none" cx="355" cy="792.5" rx="5" ry="7"/>
	<rect x="474" y="20.5" pointer-events="none" class="st2" width="60" height="145"/>
	<path pointer-events="none" class="st3" d="M529,165.5v-145 M529,93h5"/>
	<rect x="534" y="122" pointer-events="none" class="st2" width="5" height="14.5"/>
	<rect x="534" y="49.5" pointer-events="none" class="st2" width="5" height="14.5"/>
	<rect x="552" y="0.5" pointer-events="none" class="st2" width="80" height="5"/>
	<path pointer-events="none" class="st3" d="M552,5.5c0,44.2,35.8,80,80,80v-80"/>
</g>
	<circle id="Cross-1" class="st3" cx="590.5" cy="390.5" r="5"/>
	<circle id="Cross-2" class="st3" cx="590.5" cy="557.5" r="5"/>
	<circle id="Cross-3" class="st3" cx="523.5" cy="558" r="5"/>
	<circle id="Cross-4" class="st3" cx="523.5" cy="660.5" r="5"/>
	<circle id="Cross-5" class="st3" cx="354.5" cy="660.5" r="5"/>
	<line id="Cross-1__Cross-2" class="road" x1="590.5" y1="390.5" x2="590.5" y2="557.5"/>
	<line id="Cross-2__Cross-3" class="road" x1="523.5" y1="558" x2="590.5" y2="557.5"/>
	<line id="Cross-3__Cross-4" class="road" x1="523.5" y1="660.5" x2="523.5" y2="558"/>
	<line id="Cross-4__Cross-5" class="road" x1="523.5" y1="660.5" x2="354.5" y2="660.5"/>
	<circle id="Гостинная" class="st3" cx="345.3" cy="390.5" r="5"/>
	<line id="Гостинная__Cross-1" class="road" x1="345.3" y1="390.5" x2="590.5" y2="390.5"/>
	<circle id="Cross-6" class="st3" cx="995.5" cy="390.5" r="5"/>
	<circle id="Детская" class="st3" cx="835.5" cy="390.5" r="5"/>
	<line id="Cross-1__Детская" class="road" x1="590.5" y1="390.5" x2="835.5" y2="390.5"/>
	<line id="Детская__Cross-6" class="road" x1="835.5" y1="390.5" x2="995.5" y2="390.5"/>
	<circle id="Гардероб" class="st3" cx="994.9" cy="135.5" r="5"/>
	<line id="Cross-6__Гардероб" class="road" x1="995.5" y1="390.5" x2="994.9" y2="135.5"/>
	<circle id="Cross-6" class="st3" cx="590.5" cy="145.5" r="5"/>
	<line id="Вход__Cross-1" class="road" x1="590.5" y1="390.5" x2="590.5" y2="145.5"/>
	<circle id="Туалет" class="st3" cx="354.5" cy="750" r="5"/>
	<circle id="Ванная" class="st3" cx="523.5" cy="750" r="5"/>
	<line id="Cross-5__Туалет" class="road" x1="354.5" y1="660.5" x2="354.5" y2="750"/>
	<line id="Cross-4__Ванная" class="road" x1="523.5" y1="660.5" x2="523.5" y2="750"/>
	<circle id="Спальня" class="st3" cx="663" cy="660.5" r="5"/>
	<circle id="Cross-7" class="st3" cx="663" cy="641" r="5"/>
	<circle id="Cross-8" class="st3" cx="901" cy="641" r="5"/>
	<circle id="Cross-9" class="st3" cx="901" cy="685.5" r="5"/>
	<circle id="Балкон" class="st3" cx="1020" cy="685.5" r="5"/>
	<line id="Cross-4__Спальня" class="road" x1="523.5" y1="660.5" x2="663" y2="660.5"/>
	<line id="Спальня__Cross-7" class="road" x1="663" y1="660.5" x2="663" y2="641"/>
	<line id="Cross-7__Cross-8" class="road" x1="663" y1="641" x2="901" y2="641"/>
	<line id="Cross-8__Cross-9" class="road" x1="901" y1="641" x2="901" y2="685.5"/>
	<line id="Cross-9__Балкон" class="road" x1="901" y1="685.5" x2="1020" y2="685.5"/>
	<circle id="Кухня" class="st3" cx="230.1" cy="660.5" r="5"/>
	<line id="Cross-5__Кухня" class="road" x1="354.5" y1="660.5" x2="230.1" y2="660.5"/>
	<g id="rooms">
<text transform="matrix(1 0 0 1 127 337)" class="text">Гостинная</text>
	<text transform="matrix(1 0 0 1 568 122)" class="text">Вход</text>
	<text transform="matrix(1 0 0 1 770 134)" class="text">Гардероб</text>
	<text transform="matrix(1 0 0 1 908 427)" class="text">Детская</text>
	<text transform="matrix(1 0 0 1 171 720.5)" class="text">Кухня</text>
	<text transform="matrix(1 0 0 1 731 630.5)" class="text">Спальня</text>
	<text transform="matrix(1 0 0 1 996 750)" class="text">Балкон</text>
	<text transform="matrix(1 0 0 1 461 769.5)" class="text">Ванная</text>
	<text transform="matrix(1 0 0 1 320.5 761.5)" class="text">Туалет</text>
</g>
</g>
</svg>
